<?xml version="1.0" encoding="UTF-8"?>
<svg width="512" height="512" viewBox="0 0 512 512" fill="none" xmlns="http://www.w3.org/2000/svg">
  <rect width="512" height="512" rx="256" fill="#E5E7EB"/>
  <path d="M256 128c-70.7 0-128 57.3-128 128s57.3 128 128 128 128-57.3 128-128-57.3-128-128-128zM351.3 272h-32.6c-2.1 10.3-5.4 20.3-10.1 29.7l23.1 23.1c-18.3 25.7-47.4 42.2-79.7 42.2s-61.4-16.5-79.7-42.2l23.1-23.1c-4.7-9.4-8-19.4-10.1-29.7h-32.6c-2.3 11.7-3.5 23.8-3.5 36s1.2 24.3 3.5 36h190.6c2.3-11.7 3.5-23.8 3.5-36s-1.2-24.3-3.5-36z" fill="#4B5563"/>
  <path d="M256 384c70.7 0 128-57.3 128-128 0-12.2-1.2-24.3-3.5-36H190.9c-2.3 11.7-3.5 23.8-3.5 36 0 70.7 57.3 128 128 128z" fill="#059669"/>
  <path d="M321.1 272c-2.1 10.3-5.4 20.3-10.1 29.7l23.1 23.1c-18.3 25.7-47.4 42.2-79.7 42.2V384c70.7 0 128-57.3 128-128 0-12.2-1.2-24.3-3.5-36h-32.6z" fill="#047857"/>
</svg> 
